{
  "accessors": [
    {
      "bufferView": 1,
      "componentType": 5126,
      "count": 20425,
      "max": [
        1.2198716402053833,
        -0.28313234448432922,
        0.39744064211845398
      ],
      "min": [
        -1.2198892831802368,
        -0.98650383949279785,
        -0.82314670085906982
      ],
      "type": "VEC3"
    },
    {
      "bufferView": 1,
      "byteOffset": 245100,
      "componentType": 5126,
      "count": 20425,
      "max": [
        0.97385340929031372,
        0.99999767541885376,
        0.99881207942962646
      ],
      "min": [
        -0.97376245260238647,
        -0.99993342161178589,
        -0.99973517656326294
      ],
      "type": "VEC3"
    },
    {
      "bufferView": 2,
      "componentType": 5126,
      "count": 20425,
      "max": [
        1,
        1,
        1,
        1
      ],
      "min": [
        0.98039215803146362,
        0.98039215803146362,
        0.98039215803146362,
        1
      ],
      "type": "VEC4"
    },
    {
      "bufferView": 0,
      "componentType": 5125,
      "count": 119988,
      "max": [
        20424
      ],
      "min": [
        0
      ],
      "type": "SCALAR"
    }
  ],
  "asset": {
    "extras": {
      "author": "kand8998 (https://sketchfab.com/KaitlynAndrus)",
      "license": "CC-BY-4.0 (http://creativecommons.org/licenses/by/4.0/)",
      "source": "https://sketchfab.com/3d-models/speed-sculpt-lips-b50b125355f94a139a791aa0680620ce",
      "title": "Speed Sculpt: Lips"
    },
    "generator": "Sketchfab-7.51.0",
    "version": "2.0"
  },
  "bufferViews": [
    {
      "buffer": 0,
      "byteLength": 479952,
      "byteOffset": 0,
      "name": "floatBufferViews",
      "target": 34963
    },
    {
      "buffer": 0,
      "byteLength": 490200,
      "byteOffset": 479952,
      "byteStride": 12,
      "name": "floatBufferViews",
      "target": 34962
    },
    {
      "buffer": 0,
      "byteLength": 326800,
      "byteOffset": 970152,
      "byteStride": 16,
      "name": "floatBufferViews",
      "target": 34962
    }
  ],
  "buffers": [
    {
      "byteLength": 1296952,
      "uri": "scene.bin"
    }
  ],
  "materials": [
    {
      "doubleSided": true,
      "name": "material_0",
      "pbrMetallicRoughness": {
        "baseColorFactor": [
          0.86482458203182677,
          0.86482458203182677,
          0.86482458203182677,
          1
        ],
        "metallicFactor": 0,
        "roughnessFactor": 0.59999999999999998
      }
    }
  ],
  "meshes": [
    {
      "primitives": [
        {
          "attributes": {
            "COLOR_0": 2,
            "NORMAL": 1,
            "POSITION": 0
          },
          "indices": 3,
          "material": 0,
          "mode": 4
        }
      ]
    }
  ],
  "nodes": [
    {
      "children": [
        1
      ],
      "name": "RootNode (gltf orientation matrix)",
      "rotation": [
        -0.70710678118654746,
        -0,
        -0,
        0.70710678118654757
      ]
    },
    {
      "children": [
        2
      ],
      "name": "RootNode (model correction matrix)"
    },
    {
      "children": [
        3
      ],
      "name": "Lips_Jan 27.OBJ.cleaner.materialmerger.gles"
    },
    {
      "mesh": 0,
      "name": ""
    }
  ],
  "scene": 0,
  "scenes": [
    {
      "name": "OSG_Scene",
      "nodes": [
        0
      ]
    }
  ]
}

